<svg width="50" height="40" viewBox="0 0 50 40" fill="none" xmlns="http://www.w3.org/2000/svg">
<path d="M2 4.29167C2 3.68388 2.24144 3.10098 2.67121 2.67121C3.10098 2.24144 3.68388 2 4.29167 2H45.5417C46.1495 2 46.7324 2.24144 47.1621 2.67121C47.5919 3.10098 47.8333 3.68388 47.8333 4.29167V36.375C47.8333 36.9828 47.5919 37.5657 47.1621 37.9955C46.7324 38.4252 46.1495 38.6667 45.5417 38.6667H4.29167C3.68388 38.6667 3.10098 38.4252 2.67121 37.9955C2.24144 37.5657 2 36.9828 2 36.375V4.29167Z" stroke="#111111" stroke-width="2.66667" stroke-linejoin="round"/>
<path d="M38.6667 2V38.6667M11.1667 2V38.6667M40.9583 13.4583H47.8333M40.9583 27.2083H47.8333M2 13.4583H8.875M2 11.1667V15.75M7.72917 2H14.6042M7.72917 38.6667H14.6042M35.2292 2H42.1042M35.2292 38.6667H42.1042M2 27.2083H8.875M2 24.9167V29.5M47.8333 24.9167V29.5M47.8333 11.1667V15.75" stroke="#111111" stroke-width="2.66667" stroke-linecap="round" stroke-linejoin="round"/>
<path d="M21.4792 14.6041L30.6459 20.3333L21.4792 26.0625V14.6041Z" stroke="#111111" stroke-width="2.66667" stroke-linejoin="round"/>
</svg>
